<?xml version="1.0" encoding="utf-8"?>
<!-- Generator: Adobe Illustrator 25.0.1, SVG Export Plug-In . SVG Version: 6.00 Build 0)  -->
<svg version="1.1" id="Layer_1" xmlns="http://www.w3.org/2000/svg" xmlns:xlink="http://www.w3.org/1999/xlink" x="0px" y="0px"
	 viewBox="0 0 799 507" style="enable-background:new 0 0 799 507;" xml:space="preserve">
<style type="text/css">
	.st0{fill:#E6A470;}
</style>
<g>
	<path class="st0" d="M142.29,96.03c73.31-0.01,146.63,0.02,219.94-0.01c0.03,16.86,0.01,33.71,0.01,50.57
		c-56.47,0.02-112.93-0.01-169.4,0.01c0,46.31,0,92.62,0,138.92c0.33,14.52-0.45,29.1-3.57,43.32
		c57.66,0.05,115.32,0.02,172.97,0.01c0.01,16.85-0.01,33.69,0.01,50.54c-63.84,0-127.68,0-191.52,0
		c-5.64,10.05-12.45,19.38-19.57,28.43c-13.02-10.78-26.02-21.59-39.02-32.38c17.57-19.41,28.51-44.75,29.9-70.95
		c0.49-12.11,0.14-24.25,0.24-36.36c-9.61,0.08-19.22-0.23-28.81,0.12c-8.74,2.05-17.29,4.92-25.97,7.25c0-21.67,0-43.33,0-64.99
		c7.72,2.19,15.44,4.39,23.15,6.64c2.23,0.67,4.56,0.89,6.88,0.85c8.25-0.09,16.5-0.01,24.74-0.06
		C142.29,177.31,142.27,136.67,142.29,96.03z"/>
	<path class="st0" d="M410.57,96.03c16.87-0.01,33.74,0.01,50.6,0c0.03,40.64,0,81.28,0.02,121.92c39.6,0.01,79.21,0.02,118.81,0
		c0.03-40.64,0-81.27,0.02-121.91c16.86-0.01,33.73-0.02,50.59,0c0.02,40.64,0,81.28,0.01,121.91c13.94,0.02,27.89-0.01,41.83,0.09
		c5.99,0.6,10.91-3.96,14.28-8.39c3.95-5.2,4.74-11.87,4.55-18.2c-0.32-2.41,1.75-4.65,4.2-4.4c14.34-0.09,28.69-0.05,43.04-0.02
		c2.87-0.46,5.44,2.78,4.18,5.43c-3.79,7.83-8.52,15.2-12,23.19c-8.49,19.23-11.83,40.85-8.72,61.69
		c1.1,12.06,5.77,23.42,7.24,35.43c3.2,23.57-0.68,48.04-10.98,69.49c-4.76,9.88-9.47,19.79-14.22,29.67
		c-1.58,4.82-9.3,4.85-11.3,0.39c-6.04-10.29-12.02-20.61-18.08-30.89c-2.16-3.29-2.51-7.79-0.43-11.2
		c5.17-8.86,11.64-17.05,15.28-26.73c6.3-16.11,6.22-34.59-0.21-50.65c-3.48-9.01-9.41-16.71-14.46-24.85
		c-14.73-0.06-29.46,0.21-44.2,0.12c-0.01,46.25,0.01,92.51-0.01,138.76c-16.86,0.03-33.73,0.02-50.59,0.01
		c-0.02-46.26,0.01-92.51-0.02-138.77c-39.6-0.02-79.21-0.01-118.81,0c-0.19,21.52,1.13,43.33-3.71,64.49
		c-4.35,20.71-12.99,40.46-24.94,57.91c-4.02,6-8.67,11.54-13.05,17.28c-13.03-10.76-26.01-21.58-39.02-32.36
		c17.78-19.63,28.82-45.37,29.93-71.9c0.36-11.81,0.1-23.62,0.16-35.43c-55.85-0.17-111.7-0.11-167.55-0.11
		c-0.01-16.67-0.01-33.33,0-50c55.85,0,111.7,0.02,167.55-0.04C410.59,177.32,410.56,136.68,410.57,96.03z"/>
</g>
</svg>
